<svg width="355" height="129" viewBox="0 0 355 129" fill="none" xmlns="http://www.w3.org/2000/svg">
<path d="M67.7787 11.8788C65.8437 10.3738 63.1563 10.3738 61.2213 11.8788C51.0088 19.6725 20.855 45.0962 21.0163 74.7125C21.0163 98.685 40.5275 118.25 64.5538 118.25C88.58 118.25 108.091 98.7387 108.091 74.7662C108.145 45.58 77.9374 19.7263 67.7787 11.8788Z" fill="#00AEEF" stroke="#00AEEF" stroke-width="1.5" stroke-miterlimit="10"/>
<path d="M143.682 69.2841L137.034 69.6932C136.92 69.125 136.676 68.6136 136.301 68.1591C135.926 67.6932 135.432 67.3239 134.818 67.0511C134.216 66.767 133.494 66.625 132.653 66.625C131.528 66.625 130.58 66.8636 129.807 67.3409C129.034 67.8068 128.648 68.4318 128.648 69.2159C128.648 69.8409 128.898 70.3693 129.398 70.8011C129.898 71.233 130.756 71.5795 131.972 71.8409L136.71 72.7955C139.256 73.3182 141.153 74.1591 142.403 75.3182C143.653 76.4773 144.278 78 144.278 79.8864C144.278 81.6023 143.773 83.108 142.761 84.4034C141.761 85.6989 140.386 86.7102 138.636 87.4375C136.898 88.1534 134.892 88.5114 132.619 88.5114C129.153 88.5114 126.392 87.7898 124.335 86.3466C122.29 84.892 121.091 82.9148 120.739 80.4148L127.881 80.0398C128.097 81.0966 128.619 81.9034 129.449 82.4602C130.278 83.0057 131.341 83.2784 132.636 83.2784C133.909 83.2784 134.932 83.0341 135.705 82.5455C136.489 82.0455 136.886 81.4034 136.898 80.6193C136.886 79.9602 136.608 79.4205 136.062 79C135.517 78.5682 134.676 78.2386 133.54 78.0114L129.006 77.108C126.449 76.5966 124.545 75.7102 123.295 74.4489C122.057 73.1875 121.438 71.5795 121.438 69.625C121.438 67.9432 121.892 66.4943 122.801 65.2784C123.722 64.0625 125.011 63.125 126.67 62.4659C128.341 61.8068 130.295 61.4773 132.534 61.4773C135.841 61.4773 138.443 62.1761 140.341 63.5739C142.25 64.9716 143.364 66.875 143.682 69.2841ZM160.637 88.4943C158.966 88.4943 157.478 88.2045 156.171 87.625C154.864 87.0341 153.83 86.1648 153.069 85.017C152.319 83.858 151.944 82.4148 151.944 80.6875C151.944 79.233 152.211 78.0114 152.745 77.0227C153.279 76.0341 154.006 75.2386 154.927 74.6364C155.847 74.0341 156.892 73.5795 158.063 73.2727C159.245 72.9659 160.483 72.75 161.779 72.625C163.302 72.4659 164.529 72.3182 165.461 72.1818C166.392 72.0341 167.069 71.8182 167.489 71.5341C167.909 71.25 168.12 70.8295 168.12 70.2727V70.1705C168.12 69.0909 167.779 68.2557 167.097 67.6648C166.427 67.0739 165.472 66.7784 164.233 66.7784C162.927 66.7784 161.887 67.0682 161.114 67.6477C160.341 68.2159 159.83 68.9318 159.58 69.7955L152.864 69.25C153.205 67.6591 153.875 66.2841 154.875 65.125C155.875 63.9545 157.165 63.0568 158.745 62.4318C160.336 61.7955 162.177 61.4773 164.267 61.4773C165.722 61.4773 167.114 61.6477 168.444 61.9886C169.784 62.3295 170.972 62.858 172.006 63.5739C173.052 64.2898 173.875 65.2102 174.478 66.3352C175.08 67.4489 175.381 68.7841 175.381 70.3409V88H168.495V84.3693H168.29C167.87 85.1875 167.307 85.9091 166.603 86.5341C165.898 87.1477 165.052 87.6307 164.063 87.983C163.074 88.3239 161.932 88.4943 160.637 88.4943ZM162.716 83.483C163.784 83.483 164.728 83.2727 165.546 82.8523C166.364 82.4205 167.006 81.8409 167.472 81.1136C167.938 80.3864 168.171 79.5625 168.171 78.642V75.8636C167.944 76.0114 167.631 76.1477 167.233 76.2727C166.847 76.3864 166.409 76.4943 165.921 76.5966C165.432 76.6875 164.944 76.7727 164.455 76.8523C163.966 76.9205 163.523 76.983 163.125 77.0398C162.273 77.1648 161.529 77.3636 160.892 77.6364C160.256 77.9091 159.762 78.2784 159.409 78.7443C159.057 79.1989 158.881 79.767 158.881 80.4489C158.881 81.4375 159.239 82.1932 159.955 82.7159C160.682 83.2273 161.603 83.483 162.716 83.483ZM199.414 61.8182V67.2727H183.255V61.8182H199.414ZM186.954 88V59.9261C186.954 58.0284 187.323 56.4545 188.062 55.2045C188.812 53.9545 189.835 53.017 191.13 52.392C192.426 51.767 193.897 51.4545 195.545 51.4545C196.658 51.4545 197.676 51.5398 198.596 51.7102C199.528 51.8807 200.221 52.0341 200.676 52.1705L199.38 57.625C199.096 57.5341 198.744 57.4489 198.323 57.3693C197.914 57.2898 197.494 57.25 197.062 57.25C195.994 57.25 195.249 57.5 194.829 58C194.408 58.4886 194.198 59.1761 194.198 60.0625V88H186.954ZM219.165 88.5114C216.471 88.5114 214.153 87.9659 212.21 86.875C210.278 85.7727 208.79 84.2159 207.744 82.2045C206.699 80.1818 206.176 77.7898 206.176 75.0284C206.176 72.3352 206.699 69.9716 207.744 67.9375C208.79 65.9034 210.261 64.3182 212.159 63.1818C214.068 62.0455 216.307 61.4773 218.875 61.4773C220.602 61.4773 222.21 61.7557 223.699 62.3125C225.199 62.858 226.505 63.6818 227.619 64.7841C228.744 65.8864 229.619 67.2727 230.244 68.9432C230.869 70.6023 231.182 72.5455 231.182 74.7727V76.767H209.074V72.267H224.346C224.346 71.2216 224.119 70.2955 223.665 69.4886C223.21 68.6818 222.579 68.0511 221.772 67.5966C220.977 67.1307 220.051 66.8977 218.994 66.8977C217.892 66.8977 216.915 67.1534 216.062 67.6648C215.221 68.1648 214.562 68.8409 214.085 69.6932C213.608 70.5341 213.363 71.4716 213.352 72.5057V76.7841C213.352 78.0795 213.591 79.1989 214.068 80.142C214.557 81.0852 215.244 81.8125 216.13 82.3239C217.017 82.8352 218.068 83.0909 219.284 83.0909C220.091 83.0909 220.829 82.9773 221.5 82.75C222.17 82.5227 222.744 82.1818 223.221 81.7273C223.699 81.2727 224.062 80.7159 224.312 80.0568L231.028 80.5C230.687 82.1136 229.988 83.5227 228.932 84.7273C227.886 85.9205 226.534 86.8523 224.875 87.5227C223.227 88.1818 221.324 88.5114 219.165 88.5114ZM254.166 61.8182V67.2727H238.399V61.8182H254.166ZM241.979 55.5455H249.24V79.9545C249.24 80.625 249.342 81.1477 249.547 81.5227C249.752 81.8864 250.036 82.142 250.399 82.2898C250.774 82.4375 251.206 82.5114 251.695 82.5114C252.036 82.5114 252.377 82.483 252.717 82.4261C253.058 82.358 253.32 82.3068 253.502 82.2727L254.644 87.6761C254.28 87.7898 253.769 87.9205 253.11 88.0682C252.45 88.2273 251.649 88.3239 250.706 88.358C248.956 88.4261 247.422 88.1932 246.104 87.6591C244.797 87.125 243.78 86.2955 243.053 85.1705C242.325 84.0455 241.967 82.625 241.979 80.9091V55.5455ZM267.699 97.8182C266.779 97.8182 265.915 97.7443 265.109 97.5966C264.313 97.4602 263.654 97.2841 263.131 97.0682L264.768 91.6477C265.62 91.9091 266.387 92.0511 267.069 92.0739C267.762 92.0966 268.359 91.9375 268.859 91.5966C269.37 91.2557 269.785 90.6761 270.103 89.858L270.529 88.75L261.137 61.8182H268.773L274.194 81.0455H274.466L279.938 61.8182H287.626L277.449 90.8295C276.961 92.2386 276.296 93.4659 275.455 94.5114C274.626 95.5682 273.574 96.3807 272.302 96.9489C271.029 97.5284 269.495 97.8182 267.699 97.8182ZM298.265 88.4432C297.14 88.4432 296.174 88.0455 295.367 87.25C294.572 86.4432 294.174 85.4773 294.174 84.3523C294.174 83.2386 294.572 82.2841 295.367 81.4886C296.174 80.6932 297.14 80.2955 298.265 80.2955C299.356 80.2955 300.311 80.6932 301.129 81.4886C301.947 82.2841 302.356 83.2386 302.356 84.3523C302.356 85.1023 302.163 85.7898 301.777 86.4148C301.402 87.0284 300.907 87.5227 300.294 87.8977C299.68 88.2614 299.004 88.4432 298.265 88.4432ZM320.104 88.4943C318.433 88.4943 316.945 88.2045 315.638 87.625C314.331 87.0341 313.297 86.1648 312.535 85.017C311.785 83.858 311.41 82.4148 311.41 80.6875C311.41 79.233 311.678 78.0114 312.212 77.0227C312.746 76.0341 313.473 75.2386 314.393 74.6364C315.314 74.0341 316.359 73.5795 317.53 73.2727C318.712 72.9659 319.95 72.75 321.246 72.625C322.768 72.4659 323.996 72.3182 324.928 72.1818C325.859 72.0341 326.535 71.8182 326.956 71.5341C327.376 71.25 327.587 70.8295 327.587 70.2727V70.1705C327.587 69.0909 327.246 68.2557 326.564 67.6648C325.893 67.0739 324.939 66.7784 323.7 66.7784C322.393 66.7784 321.354 67.0682 320.581 67.6477C319.808 68.2159 319.297 68.9318 319.047 69.7955L312.331 69.25C312.672 67.6591 313.342 66.2841 314.342 65.125C315.342 63.9545 316.632 63.0568 318.212 62.4318C319.803 61.7955 321.643 61.4773 323.734 61.4773C325.189 61.4773 326.581 61.6477 327.91 61.9886C329.251 62.3295 330.439 62.858 331.473 63.5739C332.518 64.2898 333.342 65.2102 333.945 66.3352C334.547 67.4489 334.848 68.7841 334.848 70.3409V88H327.962V84.3693H327.757C327.337 85.1875 326.774 85.9091 326.07 86.5341C325.365 87.1477 324.518 87.6307 323.53 87.983C322.541 88.3239 321.399 88.4943 320.104 88.4943ZM322.183 83.483C323.251 83.483 324.195 83.2727 325.013 82.8523C325.831 82.4205 326.473 81.8409 326.939 81.1136C327.405 80.3864 327.638 79.5625 327.638 78.642V75.8636C327.41 76.0114 327.098 76.1477 326.7 76.2727C326.314 76.3864 325.876 76.4943 325.388 76.5966C324.899 76.6875 324.41 76.7727 323.922 76.8523C323.433 76.9205 322.99 76.983 322.592 77.0398C321.74 77.1648 320.996 77.3636 320.359 77.6364C319.723 77.9091 319.229 78.2784 318.876 78.7443C318.524 79.1989 318.348 79.767 318.348 80.4489C318.348 81.4375 318.706 82.1932 319.422 82.7159C320.149 83.2273 321.07 83.483 322.183 83.483ZM344.801 88V61.8182H352.063V88H344.801ZM348.449 58.4432C347.37 58.4432 346.444 58.0852 345.671 57.3693C344.909 56.642 344.529 55.7727 344.529 54.7614C344.529 53.7614 344.909 52.9034 345.671 52.1875C346.444 51.4602 347.37 51.0966 348.449 51.0966C349.529 51.0966 350.449 51.4602 351.211 52.1875C351.983 52.9034 352.37 53.7614 352.37 54.7614C352.37 55.7727 351.983 56.642 351.211 57.3693C350.449 58.0852 349.529 58.4432 348.449 58.4432Z" fill="white"/>
<path d="M32.0341 88V53.0909H39.4148V67.4943H54.3977V53.0909H61.7614V88H54.3977V73.5795H39.4148V88H32.0341ZM71.962 88V82.6818L84.3882 71.1761C85.445 70.1534 86.3314 69.233 87.0473 68.4148C87.7745 67.5966 88.3257 66.7955 88.7007 66.0114C89.0757 65.2159 89.2632 64.358 89.2632 63.4375C89.2632 62.4148 89.0302 61.5341 88.5643 60.7955C88.0984 60.0455 87.462 59.4716 86.6552 59.0739C85.8484 58.6648 84.9336 58.4602 83.9109 58.4602C82.8427 58.4602 81.9109 58.6761 81.1155 59.108C80.32 59.5398 79.7064 60.1591 79.2745 60.9659C78.8427 61.7727 78.6268 62.733 78.6268 63.8466H71.6211C71.6211 61.5625 72.1382 59.5795 73.1723 57.8977C74.2064 56.2159 75.6552 54.9148 77.5189 53.9943C79.3825 53.0739 81.5302 52.6136 83.962 52.6136C86.462 52.6136 88.6382 53.0568 90.4905 53.9432C92.3541 54.8182 93.803 56.0341 94.837 57.5909C95.8711 59.1477 96.3882 60.9318 96.3882 62.9432C96.3882 64.2614 96.1268 65.5625 95.6041 66.8466C95.0927 68.1307 94.178 69.5568 92.8598 71.125C91.5416 72.6818 89.6836 74.5511 87.2859 76.733L82.1893 81.7273V81.9659H96.8484V88H71.962Z" fill="white"/>
</svg>
